<?xml version="1.0" encoding="utf-8"?>
<!-- Generator: Adobe Illustrator 19.2.0, SVG Export Plug-In . SVG Version: 6.00 Build 0)  -->
<svg version="1.1" id="Layer_1" xmlns="http://www.w3.org/2000/svg" xmlns:xlink="http://www.w3.org/1999/xlink" x="0px" y="0px"
	 viewBox="0 0 222.331 64.834" style="enable-background:new 0 0 222.331 64.834;" xml:space="preserve">
<style type="text/css">
	.st0{fill:#FFFFFF;}
	.st1{fill:none;stroke:#FFFFFF;stroke-miterlimit:10;}
</style>
<g>
	<path class="st0" d="M55.592,12.006c0,0.216,0.132,0.323,0.396,0.323v0.324h-2.772v-0.324c0.083,0,0.159-0.026,0.225-0.08
		c0.065-0.055,0.099-0.136,0.099-0.243V4.842h-2.97c-0.108,0-0.213,0.03-0.315,0.09c-0.102,0.061-0.153,0.174-0.153,0.342h-0.324
		v-2.52h0.324c0,0.168,0.051,0.282,0.153,0.342c0.102,0.06,0.207,0.09,0.315,0.09h7.992c0.108,0,0.213-0.03,0.315-0.09
		s0.153-0.174,0.153-0.342h0.324v2.52H59.03c0-0.168-0.051-0.281-0.153-0.342c-0.102-0.06-0.207-0.09-0.315-0.09h-2.97V12.006z"/>
	<path class="st0" d="M63.836,12.006c0,0.107,0.036,0.188,0.108,0.243c0.072,0.054,0.156,0.08,0.252,0.08v0.324h-2.808v-0.324
		c0.264,0,0.396-0.107,0.396-0.323V3.834c0-0.217-0.132-0.324-0.396-0.324V3.186h2.808V3.51c-0.096,0-0.18,0.026-0.252,0.081
		c-0.072,0.054-0.108,0.135-0.108,0.243v3.42l3.726-2.935c0.168-0.144,0.3-0.261,0.396-0.351s0.144-0.165,0.144-0.226
		c0-0.083-0.027-0.144-0.081-0.18c-0.054-0.036-0.117-0.054-0.189-0.054V3.186h3.78V3.51c-0.216,0-0.432,0.09-0.648,0.27
		l-4.14,3.294l3.78,4.374c0.156,0.181,0.339,0.357,0.549,0.531c0.209,0.174,0.417,0.291,0.621,0.351v0.324h-3.33v-0.324
		c0.156,0,0.234-0.041,0.234-0.126c0-0.06-0.084-0.191-0.252-0.396l-3.078-3.546l-1.512,1.17V12.006z"/>
	<path class="st0" d="M79.082,3.077c0.66,0,1.332,0.1,2.016,0.298c0.684,0.197,1.308,0.494,1.872,0.891
		c0.564,0.396,1.026,0.897,1.386,1.503c0.36,0.606,0.54,1.323,0.54,2.151s-0.18,1.545-0.54,2.15
		c-0.36,0.606-0.822,1.107-1.386,1.503c-0.564,0.396-1.188,0.685-1.872,0.864s-1.356,0.271-2.016,0.271
		c-0.66,0-1.332-0.091-2.016-0.271s-1.308-0.468-1.872-0.864c-0.564-0.396-1.026-0.896-1.386-1.503
		c-0.36-0.605-0.54-1.322-0.54-2.15s0.18-1.545,0.54-2.151c0.36-0.605,0.822-1.107,1.386-1.503c0.564-0.396,1.188-0.693,1.872-0.891
		C77.75,3.177,78.421,3.077,79.082,3.077z M79.082,4.733c-0.456,0-0.912,0.072-1.368,0.216c-0.456,0.145-0.867,0.352-1.233,0.621
		c-0.366,0.271-0.663,0.604-0.891,0.999c-0.228,0.396-0.342,0.847-0.342,1.351s0.114,0.954,0.342,1.35
		c0.228,0.396,0.525,0.729,0.891,0.999s0.777,0.477,1.233,0.621c0.456,0.144,0.912,0.216,1.368,0.216s0.912-0.072,1.368-0.216
		c0.456-0.145,0.867-0.352,1.233-0.621c0.366-0.27,0.663-0.603,0.891-0.999c0.228-0.396,0.342-0.846,0.342-1.35
		s-0.114-0.954-0.342-1.351c-0.228-0.396-0.525-0.729-0.891-0.999c-0.366-0.27-0.777-0.477-1.233-0.621
		C79.993,4.806,79.538,4.733,79.082,4.733z"/>
	<path class="st0" d="M98.269,4.733h-4.896c-0.36,0-0.54,0.168-0.54,0.504h-0.324V2.754h0.324c0,0.288,0.18,0.432,0.54,0.432h8.298
		v0.504l-5.724,7.309h4.896c0.336,0,0.504-0.133,0.504-0.396h0.324v2.394h-0.324c0-0.228-0.168-0.342-0.504-0.342h-8.388v-0.504
		L98.269,4.733z M98.071,2.592h-1.998L94.129,0h1.674l1.26,1.619L98.341,0h1.674L98.071,2.592z"/>
	<path class="st0" d="M113.011,5.13c0-0.132-0.051-0.231-0.153-0.297c-0.102-0.066-0.279-0.1-0.531-0.1h-5.832v2.232h3.528
		c0.24,0,0.426-0.033,0.558-0.1c0.132-0.065,0.198-0.236,0.198-0.513h0.324v2.808h-0.324c0-0.275-0.066-0.452-0.198-0.53
		c-0.132-0.078-0.318-0.117-0.558-0.117h-3.528v2.484h6.012c0.18,0,0.327-0.042,0.441-0.127c0.114-0.083,0.171-0.197,0.171-0.342
		h0.324v2.466h-0.324c0-0.18-0.057-0.281-0.171-0.306c-0.114-0.024-0.261-0.036-0.441-0.036h-8.388v-0.324
		c0.084,0,0.159-0.026,0.225-0.08c0.066-0.055,0.099-0.136,0.099-0.243V3.834c0-0.108-0.033-0.189-0.099-0.243
		c-0.066-0.055-0.141-0.081-0.225-0.081V3.186h8.208c0.252,0,0.429-0.039,0.531-0.117c0.102-0.078,0.153-0.183,0.153-0.314h0.324
		V5.13H113.011z"/>
	<path class="st0" d="M124.909,12.995c0-0.18-0.058-0.281-0.171-0.306c-0.114-0.024-0.262-0.036-0.441-0.036h-8.568v-0.324
		c0.36,0,0.54-0.107,0.54-0.323V3.834c0-0.217-0.18-0.324-0.54-0.324V3.186h3.096V3.51c-0.336,0-0.504,0.107-0.504,0.324v7.164
		h5.976c0.18,0,0.327-0.042,0.441-0.127c0.113-0.083,0.171-0.197,0.171-0.342h0.323v2.466H124.909z"/>
	<path class="st0" d="M127.068,12.329c0.312,0,0.468-0.107,0.468-0.323V3.834c0-0.217-0.156-0.324-0.468-0.324V3.186h2.988V3.51
		c-0.312,0-0.468,0.107-0.468,0.324v8.172c0,0.216,0.155,0.323,0.468,0.323v0.324h-2.988V12.329z"/>
	<path class="st0" d="M144.187,3.186c0.552,0,1.086,0.045,1.602,0.135s0.973,0.234,1.368,0.433c0.396,0.197,0.714,0.456,0.954,0.773
		c0.24,0.318,0.36,0.711,0.36,1.179c0,0.564-0.175,0.999-0.522,1.306c-0.348,0.306-0.762,0.543-1.242,0.711v0.036
		c0.564,0.168,1.041,0.435,1.432,0.801c0.39,0.366,0.585,0.891,0.585,1.575c0,0.359-0.078,0.692-0.234,0.999
		c-0.156,0.306-0.387,0.573-0.693,0.801c-0.306,0.229-0.681,0.405-1.125,0.531c-0.443,0.126-0.947,0.188-1.512,0.188h-6.605v-0.324
		c0.335,0,0.504-0.107,0.504-0.323V3.834c0-0.217-0.169-0.324-0.504-0.324V3.186H144.187z M144.546,6.894
		c0.54,0,0.987-0.069,1.342-0.207c0.354-0.138,0.53-0.429,0.53-0.873c0-0.443-0.177-0.734-0.53-0.873
		c-0.354-0.138-0.802-0.207-1.342-0.207h-3.438v2.16H144.546z M144.546,10.998c0.757,0,1.299-0.117,1.63-0.352
		c0.329-0.234,0.494-0.543,0.494-0.927s-0.165-0.693-0.494-0.927c-0.331-0.234-0.873-0.352-1.63-0.352h-3.438v2.557H144.546z"/>
	<path class="st0" d="M151.548,12.329c0.312,0,0.468-0.107,0.468-0.323V3.834c0-0.217-0.156-0.324-0.468-0.324V3.186h2.988V3.51
		c-0.312,0-0.469,0.107-0.469,0.324v8.172c0,0.216,0.156,0.323,0.469,0.323v0.324h-2.988V12.329z"/>
	<path class="st0" d="M162.563,12.006c0,0.216,0.132,0.323,0.396,0.323v0.324h-2.772v-0.324c0.084,0,0.159-0.026,0.226-0.08
		c0.065-0.055,0.099-0.136,0.099-0.243V4.842h-2.97c-0.108,0-0.213,0.03-0.315,0.09c-0.102,0.061-0.152,0.174-0.152,0.342h-0.324
		v-2.52h0.324c0,0.168,0.051,0.282,0.152,0.342c0.103,0.06,0.207,0.09,0.315,0.09h7.992c0.107,0,0.213-0.03,0.314-0.09
		s0.153-0.174,0.153-0.342h0.324v2.52h-0.324c0-0.168-0.052-0.281-0.153-0.342c-0.102-0.06-0.207-0.09-0.314-0.09h-2.971V12.006z"/>
	<path class="st0" d="M168.54,12.329c0.312,0,0.468-0.107,0.468-0.323V3.834c0-0.217-0.156-0.324-0.468-0.324V3.186h2.988V3.51
		c-0.312,0-0.469,0.107-0.469,0.324v8.172c0,0.216,0.156,0.323,0.469,0.323v0.324h-2.988V12.329z"/>
</g>
<g>
	<g>
		<path class="st0" d="M28.15,64.319c-3.792-0.007-7.584-0.014-11.376-0.023c-2.548-8.368-5.086-16.985-7.611-25.878
			c0.017,8.62,0.034,17.241,0.052,25.861C6.143,64.273,3.072,64.265,0,64.258c0-16.8,0-33.6,0-50.399
			c4.149,0.921,8.307,1.789,12.473,2.606c2.114,7.683,4.237,15.169,6.368,22.473c-0.026-7.094-0.052-14.187-0.078-21.281
			c3.052,0.559,6.108,1.09,9.168,1.593C28.003,34.272,28.077,49.296,28.15,64.319z"/>
		<path class="st0" d="M52.268,64.357c-7.224-0.009-14.448-0.021-21.672-0.034c-0.076-14.893-0.153-29.786-0.229-44.679
			c7.151,1.14,14.32,2.128,21.503,2.964c0.011,1.769,0.021,3.538,0.032,5.307c-3.507-0.357-7.011-0.745-10.512-1.165
			c0.023,3.876,0.046,7.752,0.068,11.629c3.166,0.264,6.334,0.51,9.503,0.738c0.01,1.714,0.021,3.429,0.031,5.143
			c-3.169-0.182-6.337-0.379-9.503-0.59c0.03,5.066,0.06,10.131,0.089,15.197c3.551,0.067,7.103,0.128,10.656,0.185
			C52.247,60.819,52.257,62.588,52.268,64.357z"/>
		<path class="st0" d="M79.311,57.697c0.01,2.284-1.147,4.035-3.469,5.271c-2.324,1.235-5.355,1.864-9.099,1.865
			c-3.744,0.001-6.796-0.615-9.155-1.881c-2.36-1.264-3.548-3.14-3.562-5.595c-0.054-8.919-0.108-17.838-0.162-26.757
			c-0.016-2.651,0.884-4.518,2.705-5.587c2.058-1.243,5.397-1.606,10.02-1.198c4.237,0.372,7.398,1.266,9.477,2.719
			c2.078,1.454,3.123,3.38,3.134,5.815C79.235,40.8,79.273,49.249,79.311,57.697z M68.578,58.067
			c-0.05-9.147-0.099-18.295-0.149-27.442c-0.002-0.422-0.154-0.74-0.455-0.954c-0.301-0.213-0.778-0.344-1.427-0.394
			c-0.65-0.049-1.138,0.008-1.462,0.175c-0.323,0.168-0.484,0.465-0.482,0.89c0.052,9.223,0.104,18.445,0.157,27.668
			c0.002,0.386,0.166,0.688,0.491,0.905c0.325,0.217,0.814,0.329,1.462,0.336c0.648,0.008,1.122-0.092,1.421-0.3
			C68.432,58.745,68.58,58.45,68.578,58.067z"/>
		<path class="st0" d="M106.769,57.16c0.002,2.521-0.862,4.384-2.589,5.589c-2.015,1.389-5.422,2.084-10.221,2.085
			c-4.561,0-7.899-0.829-10.018-2.512c-1.589-1.233-2.388-2.771-2.396-4.6c-0.013-2.987-0.025-5.974-0.038-8.961
			c3.343,0.079,6.686,0.144,10.029,0.197c0.009,2.985,0.017,5.97,0.026,8.955c0.001,0.408,0.212,0.734,0.637,0.977
			c0.423,0.243,0.933,0.366,1.53,0.369c0.696,0.003,1.218-0.104,1.565-0.324c0.347-0.22,0.521-0.551,0.52-0.995
			c-0.004-1.531-0.007-3.063-0.011-4.594c-0.002-1.07-0.319-1.922-0.948-2.556c-1.697-1.349-3.513-2.837-5.453-4.472
			c-3.201-2.653-4.997-4.203-5.385-4.586c-1.701-1.727-2.554-3.332-2.56-4.788c-0.006-1.475-0.012-2.949-0.019-4.424
			c-0.011-2.502,0.897-4.303,2.726-5.4c2.116-1.27,5.492-1.782,10.126-1.627c4.007,0.132,7.001,0.866,8.983,2.248
			c1.691,1.196,2.537,2.791,2.538,4.802c0.002,2.211,0.004,4.423,0.005,6.634c-3.349-0.023-6.699-0.068-10.047-0.135
			c-0.006-2.386-0.011-4.771-0.017-7.157c-0.001-0.369-0.165-0.66-0.492-0.873c-0.327-0.212-0.743-0.326-1.246-0.341
			c-0.603-0.018-1.056,0.062-1.357,0.237c-0.301,0.176-0.451,0.468-0.45,0.876c0.003,1.206,0.007,2.411,0.01,3.617
			c0.004,1.261,0.734,2.506,2.19,3.723c2.036,1.626,3.952,3.141,5.745,4.554c2.326,1.858,3.826,3.146,4.505,3.881
			c1.403,1.508,2.106,3.08,2.107,4.724C106.766,53.908,106.768,55.534,106.769,57.16z"/>
		<path class="st0" d="M134.445,57.781c-0.008,2.259-1.179,4.006-3.51,5.227c-2.333,1.221-5.37,1.826-9.114,1.826
			c-3.744,0-6.792-0.585-9.144-1.753c-2.353-1.168-3.53-2.885-3.531-5.151c-0.003-8.237-0.005-16.474-0.008-24.711
			c-0.001-2.447,0.915-4.25,2.75-5.422c2.075-1.354,5.433-2.043,10.069-2.14c4.248-0.091,7.409,0.435,9.48,1.648
			c2.07,1.212,3.101,3.02,3.093,5.427C134.502,41.081,134.474,49.431,134.445,57.781z M123.706,58.339
			c0.017-8.78,0.034-17.559,0.051-26.339c0.001-0.405-0.149-0.696-0.45-0.875c-0.3-0.177-0.777-0.259-1.429-0.247
			c-0.651,0.012-1.141,0.111-1.467,0.3c-0.326,0.189-0.489,0.486-0.49,0.89c-0.012,8.762-0.024,17.523-0.035,26.285
			c-0.001,0.367,0.161,0.651,0.486,0.853c0.324,0.202,0.812,0.301,1.46,0.299c0.649-0.002,1.124-0.104,1.424-0.308
			C123.555,58.992,123.705,58.707,123.706,58.339z"/>
		<path class="st0" d="M165.27,23.185c-2.348,13.966-4.693,27.68-7.032,41.186c-5.245,0.006-10.489,0.01-15.734,0.014
			c-2.204-13.101-4.419-26.064-6.646-38.934c3.594-0.173,7.187-0.384,10.778-0.633c1.27,9.122,2.535,18.301,3.797,27.549
			c1.357-9.31,2.718-18.692,4.081-28.156C158.102,23.907,161.688,23.565,165.27,23.185z"/>
		<path class="st0" d="M196.343,64.315c-3.624,0.007-7.248,0.013-10.872,0.019c-0.617-3.914-1.234-7.804-1.851-11.669
			c-1.696,0.067-3.393,0.132-5.089,0.194c-0.662,3.852-1.325,7.681-1.987,11.489c-3.624,0.005-7.248,0.01-10.872,0.015
			c2.849-13.752,5.702-27.799,8.555-42.207c4.693-0.581,9.379-1.227,14.058-1.939C190.964,34.502,193.647,49.179,196.343,64.315z
			 M182.696,46.761c-0.516-4.301-1.031-8.579-1.546-12.837c-0.542,4.36-1.084,8.699-1.626,13.017
			C180.582,46.882,181.639,46.822,182.696,46.761z"/>
		<path class="st0" d="M222.331,56.913c0,1.969-0.958,3.751-2.878,5.289c-2.208,1.781-5.067,2.633-8.569,2.632
			c-3.744-0.001-6.766-0.703-9.064-2.053c-2.49-1.483-3.728-3.522-3.716-6.176c0.043-9.818,0.087-19.635,0.13-29.453
			c0.013-2.915,0.93-5.203,2.751-6.921c2.106-1.981,5.449-3.421,10.018-4.336c3.949-0.792,6.891-0.569,8.837,0.787
			c1.661,1.175,2.491,3.102,2.491,5.743c0,3.048,0,6.096,0,9.144c-3.31,0.477-6.623,0.933-9.939,1.367
			c0.007-3.219,0.014-6.439,0.021-9.658c0.001-0.416-0.123-0.696-0.372-0.837c-0.25-0.141-0.648-0.164-1.196-0.069
			c-0.548,0.095-0.959,0.257-1.235,0.487c-0.275,0.23-0.412,0.548-0.414,0.958c-0.03,11.082-0.061,22.163-0.092,33.245
			c-0.001,0.365,0.162,0.646,0.487,0.841c0.325,0.196,0.713,0.289,1.165,0.277c0.552-0.015,0.953-0.129,1.205-0.344
			c0.251-0.215,0.378-0.508,0.378-0.879c0.009-4.002,0.017-8.005,0.026-12.007c3.324-0.271,6.645-0.555,9.965-0.852
			C222.331,48.369,222.331,52.641,222.331,56.913z"/>
	</g>
</g>
<g>
	<line class="st1" x1="15.013" y1="8.239" x2="39.762" y2="8.239"/>
	<line class="st1" x1="182.353" y1="8.239" x2="207.102" y2="8.239"/>
</g>
</svg>
