<?xml version="1.0" encoding="utf-8"?>
<!-- Generator: Adobe Illustrator 19.2.0, SVG Export Plug-In . SVG Version: 6.00 Build 0)  -->
<svg version="1.1" id="Layer_1" xmlns="http://www.w3.org/2000/svg" xmlns:xlink="http://www.w3.org/1999/xlink" x="0px" y="0px"
	 viewBox="0 0 219.331 64.834" style="enable-background:new 0 0 219.331 64.834;" xml:space="preserve">
<style type="text/css">
	.st0{fill:#FFFFFF;}
	.st1{fill:none;stroke:#FFFFFF;stroke-miterlimit:10;}
</style>
<g>
	<path class="st0" d="M54.604,12.006c0,0.216,0.132,0.323,0.396,0.323v0.324h-2.772v-0.324c0.083,0,0.159-0.026,0.225-0.08
		c0.065-0.055,0.099-0.136,0.099-0.243V4.842h-2.97c-0.108,0-0.213,0.03-0.315,0.09c-0.102,0.061-0.153,0.174-0.153,0.342H48.79
		v-2.52h0.324c0,0.168,0.051,0.282,0.153,0.342c0.102,0.06,0.207,0.09,0.315,0.09h7.992c0.108,0,0.213-0.03,0.315-0.09
		s0.153-0.174,0.153-0.342h0.324v2.52h-0.324c0-0.168-0.051-0.281-0.153-0.342c-0.102-0.06-0.207-0.09-0.315-0.09h-2.97V12.006z"/>
	<path class="st0" d="M62.848,12.006c0,0.107,0.036,0.188,0.108,0.243c0.072,0.054,0.156,0.08,0.252,0.08v0.324H60.4v-0.324
		c0.264,0,0.396-0.107,0.396-0.323V3.834c0-0.217-0.132-0.324-0.396-0.324V3.186h2.808V3.51c-0.096,0-0.18,0.026-0.252,0.081
		c-0.072,0.054-0.108,0.135-0.108,0.243v3.42l3.726-2.935c0.168-0.144,0.3-0.261,0.396-0.351s0.144-0.165,0.144-0.226
		c0-0.083-0.027-0.144-0.081-0.18c-0.054-0.036-0.117-0.054-0.189-0.054V3.186h3.78V3.51c-0.216,0-0.432,0.09-0.648,0.27
		l-4.14,3.294l3.78,4.374c0.156,0.181,0.339,0.357,0.549,0.531c0.209,0.174,0.417,0.291,0.621,0.351v0.324h-3.33v-0.324
		c0.156,0,0.234-0.041,0.234-0.126c0-0.06-0.084-0.191-0.252-0.396L64.36,8.262l-1.512,1.17V12.006z"/>
	<path class="st0" d="M78.094,3.077c0.66,0,1.332,0.1,2.016,0.298c0.684,0.197,1.308,0.494,1.872,0.891
		c0.564,0.396,1.026,0.897,1.386,1.503c0.36,0.606,0.54,1.323,0.54,2.151s-0.18,1.545-0.54,2.15
		c-0.36,0.606-0.822,1.107-1.386,1.503c-0.564,0.396-1.188,0.685-1.872,0.864s-1.356,0.271-2.016,0.271
		c-0.66,0-1.332-0.091-2.016-0.271s-1.308-0.468-1.872-0.864c-0.564-0.396-1.026-0.896-1.386-1.503
		c-0.36-0.605-0.54-1.322-0.54-2.15s0.18-1.545,0.54-2.151c0.36-0.605,0.822-1.107,1.386-1.503c0.564-0.396,1.188-0.693,1.872-0.891
		C76.762,3.177,77.434,3.077,78.094,3.077z M78.094,4.733c-0.456,0-0.912,0.072-1.368,0.216c-0.456,0.145-0.867,0.352-1.233,0.621
		c-0.366,0.271-0.663,0.604-0.891,0.999C74.374,6.966,74.26,7.416,74.26,7.92s0.114,0.954,0.342,1.35
		c0.228,0.396,0.525,0.729,0.891,0.999s0.777,0.477,1.233,0.621c0.456,0.144,0.912,0.216,1.368,0.216s0.912-0.072,1.368-0.216
		c0.456-0.145,0.867-0.352,1.233-0.621c0.366-0.27,0.663-0.603,0.891-0.999c0.228-0.396,0.342-0.846,0.342-1.35
		s-0.114-0.954-0.342-1.351c-0.228-0.396-0.525-0.729-0.891-0.999c-0.366-0.27-0.777-0.477-1.233-0.621
		C79.006,4.806,78.55,4.733,78.094,4.733z"/>
	<path class="st0" d="M97.281,4.733h-4.896c-0.36,0-0.54,0.168-0.54,0.504h-0.324V2.754h0.324c0,0.288,0.18,0.432,0.54,0.432h8.298
		v0.504l-5.724,7.309h4.896c0.336,0,0.504-0.133,0.504-0.396h0.324v2.394h-0.324c0-0.228-0.168-0.342-0.504-0.342h-8.388v-0.504
		L97.281,4.733z M97.084,2.592h-1.998L93.142,0h1.674l1.26,1.619L97.354,0h1.674L97.084,2.592z"/>
	<path class="st0" d="M112.024,5.13c0-0.132-0.051-0.231-0.153-0.297c-0.102-0.066-0.279-0.1-0.531-0.1h-5.832v2.232h3.528
		c0.24,0,0.426-0.033,0.558-0.1c0.132-0.065,0.198-0.236,0.198-0.513h0.324v2.808h-0.324c0-0.275-0.066-0.452-0.198-0.53
		c-0.132-0.078-0.318-0.117-0.558-0.117h-3.528v2.484h6.012c0.18,0,0.327-0.042,0.441-0.127c0.114-0.083,0.171-0.197,0.171-0.342
		h0.324v2.466h-0.324c0-0.18-0.057-0.281-0.171-0.306c-0.114-0.024-0.261-0.036-0.441-0.036h-8.388v-0.324
		c0.084,0,0.159-0.026,0.225-0.08c0.066-0.055,0.099-0.136,0.099-0.243V3.834c0-0.108-0.033-0.189-0.099-0.243
		c-0.066-0.055-0.141-0.081-0.225-0.081V3.186h8.208c0.252,0,0.429-0.039,0.531-0.117c0.102-0.078,0.153-0.183,0.153-0.314h0.324
		V5.13H112.024z"/>
	<path class="st0" d="M123.922,12.995c0-0.18-0.058-0.281-0.171-0.306c-0.114-0.024-0.262-0.036-0.441-0.036h-8.568v-0.324
		c0.36,0,0.54-0.107,0.54-0.323V3.834c0-0.217-0.18-0.324-0.54-0.324V3.186h3.096V3.51c-0.336,0-0.504,0.107-0.504,0.324v7.164
		h5.976c0.18,0,0.327-0.042,0.441-0.127c0.113-0.083,0.171-0.197,0.171-0.342h0.323v2.466H123.922z"/>
	<path class="st0" d="M126.081,12.329c0.312,0,0.468-0.107,0.468-0.323V3.834c0-0.217-0.156-0.324-0.468-0.324V3.186h2.988V3.51
		c-0.312,0-0.468,0.107-0.468,0.324v8.172c0,0.216,0.155,0.323,0.468,0.323v0.324h-2.988V12.329z"/>
	<path class="st0" d="M143.199,3.186c0.552,0,1.086,0.045,1.602,0.135s0.973,0.234,1.368,0.433c0.396,0.197,0.714,0.456,0.954,0.773
		c0.24,0.318,0.36,0.711,0.36,1.179c0,0.564-0.175,0.999-0.522,1.306c-0.348,0.306-0.762,0.543-1.242,0.711v0.036
		c0.564,0.168,1.041,0.435,1.432,0.801c0.39,0.366,0.585,0.891,0.585,1.575c0,0.359-0.078,0.692-0.234,0.999
		c-0.156,0.306-0.387,0.573-0.693,0.801c-0.306,0.229-0.681,0.405-1.125,0.531c-0.443,0.126-0.947,0.188-1.512,0.188h-6.605v-0.324
		c0.335,0,0.504-0.107,0.504-0.323V3.834c0-0.217-0.169-0.324-0.504-0.324V3.186H143.199z M143.558,6.894
		c0.54,0,0.987-0.069,1.342-0.207c0.354-0.138,0.53-0.429,0.53-0.873c0-0.443-0.177-0.734-0.53-0.873
		c-0.354-0.138-0.802-0.207-1.342-0.207h-3.438v2.16H143.558z M143.558,10.998c0.757,0,1.299-0.117,1.63-0.352
		c0.329-0.234,0.494-0.543,0.494-0.927s-0.165-0.693-0.494-0.927c-0.331-0.234-0.873-0.352-1.63-0.352h-3.438v2.557H143.558z"/>
	<path class="st0" d="M150.56,12.329c0.312,0,0.468-0.107,0.468-0.323V3.834c0-0.217-0.156-0.324-0.468-0.324V3.186h2.988V3.51
		c-0.312,0-0.469,0.107-0.469,0.324v8.172c0,0.216,0.156,0.323,0.469,0.323v0.324h-2.988V12.329z"/>
	<path class="st0" d="M161.576,12.006c0,0.216,0.132,0.323,0.396,0.323v0.324H159.2v-0.324c0.084,0,0.159-0.026,0.226-0.08
		c0.065-0.055,0.099-0.136,0.099-0.243V4.842h-2.97c-0.108,0-0.213,0.03-0.315,0.09c-0.102,0.061-0.152,0.174-0.152,0.342h-0.324
		v-2.52h0.324c0,0.168,0.051,0.282,0.152,0.342c0.103,0.06,0.207,0.09,0.315,0.09h7.992c0.107,0,0.213-0.03,0.314-0.09
		s0.153-0.174,0.153-0.342h0.324v2.52h-0.324c0-0.168-0.052-0.281-0.153-0.342c-0.102-0.06-0.207-0.09-0.314-0.09h-2.971V12.006z"/>
	<path class="st0" d="M167.552,12.329c0.312,0,0.468-0.107,0.468-0.323V3.834c0-0.217-0.156-0.324-0.468-0.324V3.186h2.988V3.51
		c-0.312,0-0.469,0.107-0.469,0.324v8.172c0,0.216,0.156,0.323,0.469,0.323v0.324h-2.988V12.329z"/>
</g>
<g>
	<g>
		<path class="st0" d="M28.15,64.319c-3.792-0.007-7.584-0.014-11.376-0.022c-2.548-8.369-5.086-16.985-7.61-25.878
			c0.017,8.621,0.034,17.241,0.052,25.862C6.143,64.273,3.072,64.265,0,64.258c0-16.8,0-33.6,0-50.399
			c4.149,0.921,8.307,1.789,12.473,2.604c2.114,7.683,4.238,15.168,6.368,22.472c-0.026-7.094-0.052-14.189-0.078-21.283
			c3.053,0.557,6.109,1.086,9.169,1.587C28.004,34.265,28.077,49.292,28.15,64.319z"/>
		<path class="st0" d="M52.268,64.356c-7.224-0.009-14.448-0.021-21.672-0.033c-0.076-14.897-0.151-29.795-0.227-44.692
			c7.152,1.134,14.322,2.114,21.506,2.94c0.011,1.771,0.021,3.541,0.032,5.312c-3.507-0.352-7.012-0.737-10.513-1.154
			c0.023,3.878,0.045,7.757,0.068,11.635c3.166,0.262,6.334,0.505,9.504,0.73c0.01,1.716,0.021,3.432,0.031,5.147
			c-3.169-0.18-6.337-0.375-9.504-0.584c0.029,5.068,0.059,10.137,0.088,15.205c3.551,0.066,7.103,0.127,10.656,0.183
			C52.247,60.816,52.258,62.586,52.268,64.356z"/>
		<path class="st0" d="M79.312,57.682c0.009,2.29-1.147,4.044-3.47,5.283c-2.324,1.238-5.356,1.868-9.1,1.869
			c-3.744,0.001-6.796-0.616-9.155-1.883c-2.36-1.265-3.547-3.142-3.562-5.6c-0.053-8.927-0.106-17.854-0.159-26.782
			c-0.016-2.653,0.885-4.523,2.706-5.596c2.058-1.248,5.398-1.617,10.021-1.217c4.237,0.365,7.399,1.253,9.478,2.705
			c2.078,1.453,3.123,3.381,3.133,5.821C79.24,40.749,79.276,49.215,79.312,57.682z M68.579,58.056
			c-0.048-9.162-0.096-18.323-0.144-27.485c-0.002-0.423-0.154-0.741-0.455-0.955c-0.301-0.213-0.778-0.344-1.428-0.392
			c-0.65-0.048-1.138,0.01-1.462,0.178c-0.324,0.169-0.484,0.466-0.482,0.892c0.051,9.236,0.102,18.471,0.153,27.707
			c0.002,0.387,0.166,0.689,0.491,0.906c0.325,0.218,0.814,0.329,1.462,0.337c0.648,0.008,1.122-0.092,1.421-0.301
			C68.432,58.735,68.581,58.44,68.579,58.056z"/>
		<path class="st0" d="M106.77,57.13c0.001,2.531-0.863,4.401-2.591,5.612c-2.015,1.394-5.423,2.092-10.222,2.093
			c-4.561,0-7.899-0.832-10.018-2.518c-1.589-1.236-2.388-2.777-2.395-4.611c-0.012-2.994-0.024-5.988-0.036-8.982
			c3.343,0.076,6.686,0.138,10.03,0.187c0.008,2.994,0.016,5.988,0.024,8.981c0.001,0.409,0.212,0.736,0.636,0.979
			c0.423,0.244,0.933,0.366,1.53,0.369c0.695,0.003,1.218-0.105,1.565-0.326c0.348-0.221,0.521-0.553,0.52-0.998
			c-0.003-1.536-0.006-3.073-0.01-4.609c-0.003-1.073-0.318-1.927-0.948-2.563c-1.696-1.352-3.513-2.842-5.452-4.48
			c-3.2-2.656-4.997-4.207-5.385-4.591c-1.7-1.729-2.553-3.336-2.559-4.795c-0.006-1.478-0.012-2.956-0.018-4.434
			c-0.01-2.507,0.897-4.314,2.727-5.418c2.117-1.278,5.492-1.799,10.127-1.656c4.007,0.122,7.002,0.85,8.983,2.231
			c1.69,1.196,2.536,2.795,2.537,4.813c0.001,2.22,0.003,4.44,0.004,6.66c-3.349-0.017-6.699-0.056-10.047-0.117
			c-0.005-2.393-0.01-4.786-0.015-7.18c-0.001-0.37-0.165-0.662-0.492-0.874c-0.327-0.212-0.743-0.325-1.246-0.339
			c-0.603-0.016-1.056,0.064-1.357,0.241c-0.301,0.178-0.451,0.471-0.45,0.88c0.003,1.209,0.006,2.419,0.009,3.628
			c0.004,1.265,0.733,2.512,2.189,3.73c2.036,1.627,3.951,3.144,5.744,4.56c2.325,1.862,3.826,3.152,4.504,3.888
			c1.404,1.511,2.105,3.09,2.106,4.74C106.769,53.864,106.77,55.497,106.77,57.13z"/>
		<path class="st0" d="M134.446,57.737c-0.008,2.273-1.18,4.032-3.511,5.26c-2.333,1.229-5.37,1.837-9.114,1.837
			c-3.744-0.001-6.792-0.588-9.143-1.761c-2.353-1.173-3.529-2.896-3.53-5.172c-0.001-8.271-0.001-16.542-0.002-24.814
			c0-2.457,0.916-4.27,2.752-5.452c2.075-1.366,5.434-2.068,10.069-2.181c4.248-0.105,7.408,0.413,9.479,1.627
			c2.07,1.213,3.1,3.029,3.091,5.451C134.507,40.934,134.477,49.335,134.446,57.737z M123.707,58.304
			c0.019-8.826,0.038-17.652,0.056-26.479c0.001-0.407-0.148-0.7-0.45-0.878c-0.3-0.177-0.777-0.259-1.429-0.245
			c-0.65,0.014-1.141,0.115-1.467,0.305c-0.326,0.191-0.49,0.489-0.49,0.895c-0.014,8.805-0.028,17.611-0.041,26.416
			c-0.001,0.369,0.161,0.654,0.485,0.857c0.324,0.203,0.812,0.302,1.46,0.3c0.649-0.002,1.124-0.105,1.424-0.31
			C123.556,58.961,123.706,58.674,123.707,58.304z"/>
		<path class="st0" d="M165.27,22.818c-2.347,14.097-4.692,27.932-7.032,41.549c-5.245,0.006-10.489,0.011-15.734,0.014
			c-2.202-13.191-4.414-26.236-6.638-39.179c3.594-0.186,7.186-0.411,10.776-0.674c1.268,9.183,2.532,18.427,3.793,27.744
			c1.358-9.382,2.72-18.839,4.083-28.382C158.105,23.571,161.689,23.213,165.27,22.818z"/>
		<path class="st0" d="M193.343,64.315c-3.624,0.007-7.248,0.013-10.872,0.019c-0.617-3.916-1.235-7.807-1.852-11.674
			c-1.696,0.067-3.393,0.131-5.089,0.193c-0.662,3.854-1.324,7.686-1.987,11.496c-3.624,0.005-7.248,0.01-10.872,0.014
			c2.847-13.767,5.7-27.823,8.551-42.238c4.693-0.575,9.38-1.216,14.06-1.923C187.963,34.494,190.647,49.176,193.343,64.315z
			 M179.695,46.752c-0.516-4.303-1.032-8.584-1.547-12.844c-0.542,4.362-1.083,8.703-1.625,13.023
			C177.581,46.873,178.638,46.813,179.695,46.752z"/>
		<path class="st0" d="M219.331,56.913c0,1.969-0.958,3.751-2.878,5.289c-2.208,1.781-5.066,2.633-8.569,2.632
			c-3.744-0.002-6.767-0.703-9.064-2.053c-2.49-1.484-3.728-3.522-3.716-6.177c0.043-9.819,0.086-19.638,0.13-29.458
			c0.013-2.915,0.93-5.203,2.751-6.92c2.106-1.98,5.449-3.419,10.018-4.332c3.949-0.791,6.891-0.567,8.837,0.789
			c1.661,1.175,2.491,3.102,2.491,5.743c0,3.048,0,6.096,0,9.144c-3.31,0.477-6.623,0.933-9.939,1.367
			c0.007-3.22,0.014-6.439,0.021-9.659c0.001-0.416-0.124-0.696-0.372-0.838c-0.249-0.142-0.648-0.164-1.196-0.07
			c-0.548,0.095-0.959,0.257-1.235,0.487c-0.275,0.23-0.412,0.548-0.414,0.958c-0.03,11.082-0.061,22.164-0.091,33.246
			c-0.001,0.365,0.162,0.646,0.487,0.841c0.325,0.197,0.713,0.289,1.165,0.277c0.552-0.015,0.954-0.129,1.205-0.344
			c0.251-0.215,0.377-0.508,0.378-0.879c0.009-4.002,0.017-8.005,0.026-12.007c3.324-0.27,6.646-0.554,9.965-0.852
			C219.331,48.369,219.331,52.641,219.331,56.913z"/>
	</g>
</g>
<g>
	<line class="st1" x1="13.621" y1="8.239" x2="38.37" y2="8.239"/>
	<line class="st1" x1="180.961" y1="8.239" x2="205.71" y2="8.239"/>
</g>
</svg>
